# xmcd
#
# Track frame offsets:
#	150
#	19452
#	33987
#	49933
#	75202
#	89330
#	98789
#	108605
#	132429
#	147786
#	163905
#	182311
#
# Disc length: 2617 seconds
#
# Revision: 1
# Processed by: cddbd v1.5.1PL0 Copyright (c) Steve Scherf et al.
# Submitted via: audiograbber 1.83.01
#
DISCID=980a370c
DTITLE=Double Stone Washed - Live
DYEAR=2005
DGENRE=Blues
TTITLE0=Stammering days
TTITLE1=Come on in my house
TTITLE2=Well, i done got over it
TTITLE3=Shakin' all over
TTITLE4=Honk Hong Money
TTITLE5=Travelin' band
TTITLE6=Parchman farm
TTITLE7=Quit while you're behind
TTITLE8=The witch queen of New-Orleans
TTITLE9=Drinkin' wine spoo-dee-oo-dee
TTITLE10=The dog
TTITLE11=Call the doctor
EXTD=West South French blues band
EXTT0=
EXTT1=
EXTT2=
EXTT3=
EXTT4=
EXTT5=
EXTT6=
EXTT7=
EXTT8=
EXTT9=
EXTT10=
EXTT11=
PLAYORDER=
